<svg xmlns="http://www.w3.org/2000/svg"  viewBox="0 0 50 50" width="24px" height="24px"><path d="M28.5 19A1.5 1.5 0 1 0 28.5 22 1.5 1.5 0 1 0 28.5 19zM29.75 15.5A1.25 1.25 0 1 0 29.75 18 1.25 1.25 0 1 0 29.75 15.5zM24.5 18A1.5 1.5 0 1 0 24.5 21 1.5 1.5 0 1 0 24.5 18zM26.5 13.125A1.375 1.375 0 1 0 26.5 15.875 1.375 1.375 0 1 0 26.5 13.125zM22.5 12A1.5 1.5 0 1 0 22.5 15 1.5 1.5 0 1 0 22.5 12zM22 7A1.5 1.5 0 1 0 22 10 1.5 1.5 0 1 0 22 7zM26 8A1.5 1.5 0 1 0 26 11 1.5 1.5 0 1 0 26 8zM29 10A1 1 0 1 0 29 12 1 1 0 1 0 29 10zM31 12A1 1 0 1 0 31 14 1 1 0 1 0 31 12zM20 17.5A1.75 1.75 0 1 0 20 21 1.75 1.75 0 1 0 20 17.5zM18 11.5A1.75 1.75 0 1 0 18 15 1.75 1.75 0 1 0 18 11.5zM17.25 6.5A1.75 1.75 0 1 0 17.25 10 1.75 1.75 0 1 0 17.25 6.5zM15 18A2 2 0 1 0 15 22 2 2 0 1 0 15 18zM13 12A2 2 0 1 0 13 16 2 2 0 1 0 13 12zM12 7A2 2 0 1 0 12 11 2 2 0 1 0 12 7zM9.5 20A2.5 2.5 0 1 0 9.5 25 2.5 2.5 0 1 0 9.5 20zM7.5 14A2.5 2.5 0 1 0 7.5 19 2.5 2.5 0 1 0 7.5 14zM3 24c-1.657 0-3 1.343-3 3s1.343 3 3 3 3-1.343 3-3S4.657 24 3 24L3 24zM21.12 23.813A1.5 1.5 0 1 0 21.12 26.813 1.5 1.5 0 1 0 21.12 23.813zM17.248 24.856A1.25 1.25 0 1 0 17.248 27.356 1.25 1.25 0 1 0 17.248 24.856zM22.254 27.777A1.5 1.5 0 1 0 22.254 30.777 1.5 1.5 0 1 0 22.254 27.777zM16.924 28.67A1.375 1.375 0 1 0 16.924 31.42 1.375 1.375 0 1 0 16.924 28.67zM18.058 32.509A1.5 1.5 0 1 0 18.058 35.509 1.5 1.5 0 1 0 18.058 32.509zM13.978 35.442A1.5 1.5 0 1 0 13.978 38.442 1.5 1.5 0 1 0 13.978 35.442zM12.844 31.478A1.5 1.5 0 1 0 12.844 34.478 1.5 1.5 0 1 0 12.844 31.478zM12.643 28.63A1 1 0 1 0 12.643 30.63 1 1 0 1 0 12.643 28.63zM13.375 25.898A1 1 0 1 0 13.375 27.898 1 1 0 1 0 13.375 25.898zM24.288 31.549A1.75 1.75 0 1 0 24.288 35.049 1.75 1.75 0 1 0 24.288 31.549zM20.092 36.281A1.75 1.75 0 1 0 20.092 39.781 1.75 1.75 0 1 0 20.092 36.281zM16.137 39.431A1.75 1.75 0 1 0 16.137 42.931 1.75 1.75 0 1 0 16.137 39.431zM27.437 35.254A2 2 0 1 0 27.437 39.254 2 2 0 1 0 27.437 35.254zM23.241 39.986A2 2 0 1 0 23.241 43.986 2 2 0 1 0 23.241 39.986zM19.411 43.352A2 2 0 1 0 19.411 47.352 2 2 0 1 0 19.411 43.352zM32.352 38.268A2.5 2.5 0 1 0 32.352 43.268 2.5 2.5 0 1 0 32.352 38.268zM28.156 43A2.5 2.5 0 1 0 28.156 48 2.5 2.5 0 1 0 28.156 43zM38.997 40.28c-.509 0-1.025.13-1.497.402-1.435.828-1.927 2.663-1.098 4.098.556.962 1.564 1.5 2.601 1.5.509 0 1.025-.13 1.497-.402 1.435-.828 1.927-2.663 1.098-4.098C41.042 40.818 40.034 40.28 38.997 40.28L38.997 40.28zM28.79 27.96A1.5 1.5 0 1 0 28.79 30.96 1.5 1.5 0 1 0 28.79 27.96zM31.413 31.167A1.25 1.25 0 1 0 31.413 33.667 1.25 1.25 0 1 0 31.413 31.167zM31.656 24.996A1.5 1.5 0 1 0 31.656 27.996 1.5 1.5 0 1 0 31.656 24.996zM34.987 29.353A1.375 1.375 0 1 0 34.987 32.103 1.375 1.375 0 1 0 34.987 29.353zM37.853 26.264A1.5 1.5 0 1 0 37.853 29.264 1.5 1.5 0 1 0 37.853 26.264zM42.433 28.331A1.5 1.5 0 1 0 42.433 31.331 1.5 1.5 0 1 0 42.433 28.331zM39.567 31.295A1.5 1.5 0 1 0 39.567 34.295 1.5 1.5 0 1 0 39.567 31.295zM36.768 33.643A1 1 0 1 0 36.768 35.643 1 1 0 1 0 36.768 33.643zM34.036 34.375A1 1 0 1 0 34.036 36.375 1 1 0 1 0 34.036 34.375zM34.123 20.974A1.75 1.75 0 1 0 34.123 24.474 1.75 1.75 0 1 0 34.123 20.974zM40.319 22.242A1.75 1.75 0 1 0 40.319 25.742 1.75 1.75 0 1 0 40.319 22.242zM45.024 24.092A1.75 1.75 0 1 0 45.024 27.592 1.75 1.75 0 1 0 45.024 24.092zM35.973 16.018A2 2 0 1 0 35.973 20.018 2 2 0 1 0 35.973 16.018zM42.17 17.286A2 2 0 1 0 42.17 21.286 2 2 0 1 0 42.17 17.286zM47 18.92A2 2 0 1 0 47 22.92 2 2 0 1 0 47 18.92zM36.558 9.505A2.5 2.5 0 1 0 36.558 14.505 2.5 2.5 0 1 0 36.558 9.505zM42.754 10.773A2.5 2.5 0 1 0 42.754 15.773 2.5 2.5 0 1 0 42.754 10.773zM34.414 1.992c-1.037 0-2.045.538-2.601 1.5-.828 1.435-.337 3.27 1.098 4.098.472.273.988.402 1.497.402 1.037 0 2.045-.538 2.601-1.5.828-1.435.337-3.27-1.098-4.098C35.439 2.121 34.923 1.992 34.414 1.992L34.414 1.992z"/></svg>